<svg width="100" height="100" viewBox="0 0 100 100" fill="none" xmlns="http://www.w3.org/2000/svg">
<path d="M66.6668 70.8334V79.1667H8.3335V70.8334C8.3335 70.8334 8.3335 54.1667 37.5002 54.1667C66.6668 54.1667 66.6668 70.8334 66.6668 70.8334ZM52.0835 31.2501C52.0835 28.3657 51.2282 25.5462 49.6258 23.148C48.0233 20.7498 45.7457 18.8806 43.081 17.7768C40.4162 16.673 37.484 16.3842 34.6551 16.9469C31.8262 17.5096 29.2277 18.8986 27.1882 20.9381C25.1487 22.9776 23.7597 25.5761 23.197 28.405C22.6343 31.2339 22.9231 34.1661 24.0269 36.8309C25.1307 39.4956 26.9999 41.7732 29.3981 43.3757C31.7963 44.9781 34.6159 45.8334 37.5002 45.8334C41.3679 45.8334 45.0772 44.2969 47.8121 41.562C50.547 38.8271 52.0835 35.1178 52.0835 31.2501ZM66.4168 54.1667C68.9783 56.149 71.0742 58.6685 72.5571 61.548C74.0401 64.4275 74.874 67.5969 75.0002 70.8334V79.1667H91.6668V70.8334C91.6668 70.8334 91.6668 55.7084 66.4168 54.1667ZM62.5002 16.6667C59.6322 16.6508 56.8273 17.5082 54.4585 19.1251C56.9895 22.6615 58.3504 26.9012 58.3504 31.2501C58.3504 35.5989 56.9895 39.8387 54.4585 43.3751C56.8273 44.9919 59.6322 45.8494 62.5002 45.8334C66.3679 45.8334 70.0772 44.2969 72.8121 41.562C75.547 38.8271 77.0835 35.1178 77.0835 31.2501C77.0835 27.3823 75.547 23.673 72.8121 20.9381C70.0772 18.2032 66.3679 16.6667 62.5002 16.6667Z" fill="#80AD6B"/>
</svg>
