<svg width="25" height="25" viewBox="0 0 25 25" fill="none" xmlns="http://www.w3.org/2000/svg">
<mask id="mask0_667_7" style="mask-type:alpha" maskUnits="userSpaceOnUse" x="0" y="0" width="25" height="25">
<rect x="0.195923" y="0.485474" width="24" height="24" fill="#D9D9D9"/>
</mask>
<g mask="url(#mask0_667_7)">
<path d="M3.74587 12.4855L11.0959 19.8355C11.3459 20.0855 11.4667 20.3771 11.4584 20.7105C11.45 21.0438 11.3209 21.3355 11.0709 21.5855C10.8209 21.8355 10.5292 21.9605 10.1959 21.9605C9.86254 21.9605 9.57087 21.8355 9.32087 21.5855L1.62087 13.9105C1.42087 13.7105 1.27087 13.4855 1.17087 13.2355C1.07087 12.9855 1.02087 12.7355 1.02087 12.4855C1.02087 12.2355 1.07087 11.9855 1.17087 11.7355C1.27087 11.4855 1.42087 11.2605 1.62087 11.0605L9.32087 3.36046C9.57087 3.11046 9.86671 2.98963 10.2084 2.99796C10.55 3.0063 10.8459 3.13546 11.0959 3.38546C11.3459 3.63546 11.4709 3.92713 11.4709 4.26046C11.4709 4.5938 11.3459 4.88546 11.0959 5.13546L3.74587 12.4855Z" fill="#1C1B1F"/>
</g>
</svg>
