<svg width="103" height="103" viewBox="0 0 103 103" fill="none" xmlns="http://www.w3.org/2000/svg">
<mask id="mask0_439_123" style="mask-type:alpha" maskUnits="userSpaceOnUse" x="0" y="0" width="103" height="103">
<rect width="103" height="103" fill="#D9D9D9"/>
</mask>
<g mask="url(#mask0_439_123)">
<path d="M34.3333 77.25H40.7708V68.6667H49.3542V62.2292H40.7708V53.6458H34.3333V62.2292H25.75V68.6667H34.3333V77.25ZM55.7917 74.0312H77.25V67.5937H55.7917V74.0312ZM55.7917 63.3021H77.25V56.8646H55.7917V63.3021ZM26.8229 39.4833H48.2812V33.0458H26.8229V39.4833ZM21.4583 90.125C19.0979 90.125 17.0773 89.2845 15.3964 87.6036C13.7155 85.9227 12.875 83.9021 12.875 81.5417V21.4583C12.875 19.0979 13.7155 17.0773 15.3964 15.3964C17.0773 13.7155 19.0979 12.875 21.4583 12.875H81.5417C83.9021 12.875 85.9227 13.7155 87.6036 15.3964C89.2845 17.0773 90.125 19.0979 90.125 21.4583V81.5417C90.125 83.9021 89.2845 85.9227 87.6036 87.6036C85.9227 89.2845 83.9021 90.125 81.5417 90.125H21.4583ZM60.5125 46.9938L66.5208 40.9854L72.5292 46.9938L77.0354 42.4875L71.0271 36.2646L77.0354 30.2563L72.5292 25.75L66.5208 31.7583L60.5125 25.75L56.0062 30.2563L62.0146 36.2646L56.0062 42.4875L60.5125 46.9938Z" fill="#80AD6B"/>
</g>
</svg>
