<svg width="25" height="32" viewBox="0 0 25 32" fill="none" xmlns="http://www.w3.org/2000/svg">
<path fill-rule="evenodd" clip-rule="evenodd" d="M2.57601 0.82251H15.456C16.1392 0.82251 16.7945 1.09391 17.2775 1.577C17.7606 2.0601 18.032 2.71532 18.032 3.39852V10.8118C17.3643 10.6872 16.6756 10.6221 15.9717 10.6221C13.9028 10.6221 11.9653 11.1849 10.304 12.1657V11.1265H7.72802V13.7025H8.27147C6.21723 15.6599 4.90808 18.3922 4.81294 21.4306H2.57601V24.0066H5.02812C5.21031 24.9095 5.50143 25.7729 5.88719 26.5826H2.57601C1.89281 26.5826 1.23759 26.3112 0.754495 25.8281C0.2714 25.345 0 24.6898 0 24.0066V3.39852C0 2.71532 0.2714 2.0601 0.754495 1.577C1.23759 1.09391 1.89281 0.82251 2.57601 0.82251ZM2.57601 3.39852V8.55053H15.456V3.39852H2.57601ZM2.57601 11.1265V13.7025H5.15201V11.1265H2.57601ZM2.57601 16.2785V18.8546H5.15201V16.2785H2.57601Z" fill="#7F975D"/>
<path d="M15.9984 31.1775C14.7456 31.1775 13.5722 30.9396 12.478 30.4639C11.3838 29.9881 10.4284 29.3419 9.61169 28.5253C8.79501 27.7086 8.14881 26.7531 7.67307 25.659C7.19734 24.5648 6.95947 23.3913 6.95947 22.1385C6.95947 20.8858 7.19734 19.7123 7.67307 18.6181C8.14881 17.5239 8.79501 16.5685 9.61169 15.7518C10.4284 14.9351 11.3838 14.2889 12.478 13.8132C13.5722 13.3375 14.7456 13.0996 15.9984 13.0996V11.8627C15.9984 11.6407 16.0936 11.49 16.2839 11.4107C16.4741 11.3314 16.6486 11.3711 16.8072 11.5297L19.1383 13.8608C19.3285 14.0511 19.4237 14.2731 19.4237 14.5268C19.4237 14.7805 19.3285 15.0025 19.1383 15.1928L16.8072 17.5239C16.6486 17.6825 16.4741 17.7221 16.2839 17.6428C16.0936 17.5636 15.9984 17.4129 15.9984 17.1909V15.954C14.2858 15.954 12.8269 16.5566 11.6217 17.7618C10.4165 18.967 9.81387 20.4259 9.81387 22.1385C9.81387 23.1851 10.0557 24.1564 10.5394 25.0524C11.023 25.9484 11.6692 26.6739 12.478 27.2289C12.7317 26.7849 13.1083 26.4082 13.6079 26.099C14.1074 25.7898 14.6822 25.5955 15.3324 25.5162C15.2848 25.1832 15.2214 24.8502 15.1421 24.5172C15.0628 24.1842 14.9677 23.875 14.8567 23.5895C14.6822 23.7322 14.4919 23.8432 14.2858 23.9225C14.0796 24.0018 13.8576 24.0415 13.6197 24.0415C13.0964 24.0415 12.6485 23.8551 12.2758 23.4825C11.9031 23.1098 11.7168 22.6618 11.7168 22.1385V21.1871C11.7168 21.0602 11.7049 20.9373 11.6811 20.8184C11.6573 20.6994 11.6296 20.5845 11.5979 20.4735C11.5186 20.299 11.5305 20.1365 11.6336 19.9858C11.7366 19.8352 11.8754 19.7678 12.0498 19.7836C12.7634 19.8154 13.5167 19.9898 14.3096 20.307C15.1024 20.6241 15.5068 21.2346 15.5227 22.1385C15.5227 22.2813 15.5108 22.4121 15.487 22.531C15.4632 22.6499 15.4196 22.7728 15.3562 22.8997C15.15 22.7411 14.9439 22.5984 14.7377 22.4715C14.5316 22.3447 14.3175 22.2337 14.0955 22.1385C14.3651 22.3447 14.6743 22.6618 15.0232 23.09C15.372 23.5182 15.6971 24.0256 15.9984 24.6123C16.3156 23.8353 16.712 23.0702 17.1877 22.3169C17.6635 21.5637 18.2185 20.8699 18.8528 20.2356C18.4881 20.4893 18.1392 20.7589 17.8062 21.0443C17.4732 21.3298 17.1481 21.6311 16.8309 21.9482C16.7199 21.7738 16.6327 21.5795 16.5693 21.3655C16.5059 21.1514 16.4741 20.9333 16.4741 20.7113C16.4741 20.0453 16.7041 19.4824 17.164 19.0225C17.6238 18.5626 18.1868 18.3327 18.8528 18.3327H19.8043C20.0263 18.3327 20.2602 18.3049 20.506 18.2494C20.7518 18.1939 20.9619 18.0869 21.1363 17.9283C21.2473 17.8173 21.3742 17.7895 21.5169 17.845C21.6596 17.9005 21.731 18.0076 21.731 18.1662C21.731 18.5626 21.7033 19.0423 21.6478 19.6052C21.5922 20.1682 21.4654 20.7074 21.2672 21.2227C21.0689 21.7381 20.7795 22.1782 20.3989 22.5429C20.0184 22.9076 19.503 23.09 18.8528 23.09C18.6149 23.09 18.389 23.0583 18.1749 22.9949C17.9608 22.9314 17.7666 22.8442 17.5921 22.7332C17.4811 23.0345 17.3543 23.4349 17.2115 23.9344C17.0688 24.4339 16.9578 24.9691 16.8785 25.54C17.4811 25.651 18.0124 25.8572 18.4722 26.1585C18.9321 26.4598 19.281 26.8166 19.5188 27.2289C20.1849 26.769 20.7399 26.1981 21.1839 25.5162C21.6279 24.8344 21.9292 24.0811 22.0878 23.2565C22.1671 22.8601 22.3455 22.527 22.623 22.2575C22.9005 21.9879 23.2296 21.8531 23.6102 21.8531C24.0225 21.8531 24.3674 21.9998 24.6449 22.2931C24.9224 22.5865 25.0294 22.9314 24.966 23.3279C24.6806 25.5638 23.6934 27.4311 22.0046 28.9296C20.3157 30.4282 18.3137 31.1775 15.9984 31.1775Z" fill="#7F975D"/>
</svg>
