<svg width="60" height="61" viewBox="0 0 60 61" fill="none" xmlns="http://www.w3.org/2000/svg">
<path d="M30.4017 51.8107C23.0022 51.8107 16.4609 48.0222 12.6428 42.3393C12.7316 36.4197 24.4821 33.1638 30.4017 33.1638C36.3214 33.1638 48.0719 36.4197 48.1607 42.3393C44.3425 48.0222 37.8013 51.8107 30.4017 51.8107ZM30.4017 9.78121C32.7567 9.78121 35.0152 10.7167 36.6805 12.382C38.3457 14.0472 39.2812 16.3057 39.2812 18.6607C39.2812 21.0157 38.3457 23.2742 36.6805 24.9394C35.0152 26.6047 32.7567 27.5402 30.4017 27.5402C28.0467 27.5402 25.7882 26.6047 24.123 24.9394C22.4578 23.2742 21.5223 21.0157 21.5223 18.6607C21.5223 16.3057 22.4578 14.0472 24.123 12.382C25.7882 10.7167 28.0467 9.78121 30.4017 9.78121ZM30.4017 0.901733C26.5148 0.901733 22.666 1.66732 19.075 3.15477C15.4839 4.64222 12.2211 6.82241 9.4726 9.57086C3.92185 15.1216 0.803467 22.6501 0.803467 30.5C0.803467 38.3499 3.92185 45.8784 9.4726 51.4291C12.2211 54.1776 15.4839 56.3578 19.075 57.8452C22.666 59.3327 26.5148 60.0983 30.4017 60.0983C38.2517 60.0983 45.7801 56.9799 51.3309 51.4291C56.8816 45.8784 60 38.3499 60 30.5C60 14.1322 46.6808 0.901733 30.4017 0.901733Z" fill="#909090"/>
</svg>
