<svg width="80" height="80" viewBox="0 0 80 80" fill="none" xmlns="http://www.w3.org/2000/svg">
<path d="M24.6667 80C22.5926 80 20.7778 79.4322 19.2222 78.2965C17.6667 77.1609 16.6296 75.6912 16.1111 73.8875L11.1111 55.9508H68.8889L63.8889 73.8875C63.3704 75.6912 62.3333 77.1609 60.7778 78.2965C59.2222 79.4322 57.4074 80 55.3333 80H24.6667ZM16.6667 0.0364382C23.2593 0.771275 28.797 3.39264 33.28 7.90052C37.76 12.4111 40 17.7393 40 23.8852C40 17.7393 42.24 12.4111 46.72 7.90052C51.203 3.39264 56.7407 0.771275 63.3333 0.0364382C64.2222 -0.0971684 65 0.136643 65.6667 0.737873C66.3333 1.3391 66.5926 2.04054 66.4445 2.84218C65.7037 8.11964 63.2963 12.6449 59.2222 16.4179C55.1482 20.1937 50.2222 22.5492 44.4444 23.4844V31.9016H75.5556C76.8148 31.9016 77.8696 32.2851 78.72 33.052C79.5733 33.8215 80 34.7742 80 35.9098V43.9262C80 46.1307 79.1304 48.0173 77.3911 49.5858C75.6489 51.157 73.5556 51.9426 71.1111 51.9426H8.88889C6.44444 51.9426 4.35111 51.157 2.60889 49.5858C0.869629 48.0173 0 46.1307 0 43.9262V35.9098C0 34.7742 0.426667 33.8215 1.28 33.052C2.13037 32.2851 3.18519 31.9016 4.44444 31.9016H35.5556V23.4844C29.7778 22.5492 24.8519 20.1937 20.7778 16.4179C16.7037 12.6449 14.2963 8.11964 13.5556 2.84218C13.4074 2.04054 13.6667 1.3391 14.3333 0.737873C15 0.136643 15.7778 -0.0971684 16.6667 0.0364382Z" fill="#80AD6B"/>
</svg>
